<svg width="145" height="120" viewBox="0 0 145 120" fill="none" xmlns="http://www.w3.org/2000/svg">
<g clip-path="url(#clip0_1_237)">
<path fill-rule="evenodd" clip-rule="evenodd" d="M77.3412 5.45129C79.8611 5.45129 82.2248 5.78908 84.4132 6.41558C82.2706 1.422 77.822 0 72.871 0C67.9103 0 63.4539 1.42758 61.3162 6.44501C63.4886 5.79646 65.8421 5.45129 68.3534 5.45129H77.3412ZM67.777 10.4646C55.8114 10.4646 48.9939 19.8779 48.9939 31.4897V43.4178C48.9939 44.579 49.9639 45.4977 51.1605 45.4977H94.4916C95.6882 45.4977 96.6582 44.579 96.6582 43.4178V31.4897C96.6582 19.8779 88.7304 10.4646 76.7648 10.4646H67.777ZM72.8091 31.5928C76.9971 31.5928 80.3921 28.1978 80.3921 24.0099C80.3921 19.8219 76.9971 16.4269 72.8091 16.4269C68.6212 16.4269 65.2262 19.8219 65.2262 24.0099C65.2262 28.1978 68.6212 31.5928 72.8091 31.5928ZM48.9939 52.5088C48.9939 51.3477 49.9639 50.4063 51.1605 50.4063H94.4916C95.6882 50.4063 96.6582 51.3477 96.6582 52.5088V65.1238C96.6582 67.4462 94.7182 69.3288 92.3251 69.3288H53.327C50.9339 69.3288 48.9939 67.4462 48.9939 65.1238V52.5088Z" fill="#E33E3F"/>
</g>
<path d="M0.82605 113.116V90.8723H10.1846C11.7097 90.8723 13.017 91.1311 14.1063 91.6486C15.1957 92.1661 16.0275 92.9126 16.6019 93.8879C17.1763 94.8434 17.4635 96.0078 17.4635 97.3812C17.4635 98.3566 17.1961 99.2921 16.6614 100.188C16.1266 101.064 15.2452 101.8 14.0172 102.397V100.128C15.1858 100.586 16.087 101.133 16.7208 101.77C17.3546 102.407 17.7903 103.104 18.028 103.86C18.2657 104.597 18.3845 105.373 18.3845 106.189C18.3845 108.379 17.6616 110.081 16.2157 111.295C14.7698 112.509 12.7595 113.116 10.1846 113.116H0.82605ZM5.43106 109.085H10.7194C11.6503 109.085 12.3931 108.817 12.9476 108.279C13.5022 107.742 13.7795 107.045 13.7795 106.189C13.7795 105.313 13.5022 104.607 12.9476 104.069C12.3931 103.532 11.6503 103.263 10.7194 103.263H5.43106V109.085ZM5.43106 99.2324H10.5114C11.2245 99.2324 11.789 99.0333 12.2049 98.6352C12.6406 98.2172 12.8585 97.6699 12.8585 96.9931C12.8585 96.3163 12.6406 95.7789 12.2049 95.3808C11.789 94.9628 11.2245 94.7538 10.5114 94.7538H5.43106V99.2324Z" fill="#212122"/>
<path d="M26.0327 113.474C24.8641 113.474 23.854 113.285 23.0023 112.907C22.1506 112.529 21.497 111.991 21.0415 111.295C20.5859 110.578 20.3581 109.732 20.3581 108.757C20.3581 107.841 20.5661 107.035 20.982 106.338C21.398 105.622 22.0318 105.025 22.8835 104.547C23.755 104.069 24.8344 103.731 26.1218 103.532L31.0834 102.726V106.01L26.924 106.756C26.2902 106.876 25.8049 107.085 25.4682 107.383C25.1315 107.662 24.9631 108.07 24.9631 108.608C24.9631 109.105 25.1513 109.493 25.5276 109.772C25.904 110.051 26.3694 110.19 26.924 110.19C27.6568 110.19 28.3005 110.031 28.8551 109.712C29.4097 109.394 29.8356 108.966 30.1326 108.428C30.4496 107.871 30.608 107.264 30.608 106.607V102.367C30.608 101.75 30.3604 101.233 29.8653 100.815C29.3899 100.397 28.7363 100.188 27.9044 100.188C27.1122 100.188 26.409 100.407 25.795 100.845C25.2008 101.283 24.7651 101.86 24.4878 102.576L20.9226 100.875C21.2395 99.9589 21.7446 99.1727 22.4378 98.5158C23.131 97.859 23.9629 97.3514 24.9334 96.9931C25.904 96.6348 26.9636 96.4557 28.1124 96.4557C29.479 96.4557 30.6872 96.7045 31.737 97.2021C32.7867 97.6997 33.5988 98.3964 34.1732 99.2921C34.7674 100.168 35.0645 101.193 35.0645 102.367V113.116H30.9051V110.489L31.9152 110.309C31.4399 111.026 30.915 111.623 30.3406 112.101C29.7662 112.559 29.1225 112.897 28.4095 113.116C27.6964 113.355 26.9042 113.474 26.0327 113.474Z" fill="#212122"/>
<path d="M46.295 113.474C44.6709 113.474 43.2052 113.106 41.8979 112.37C40.6105 111.613 39.5806 110.588 38.8081 109.294C38.0555 108.001 37.6792 106.547 37.6792 104.935C37.6792 103.323 38.0555 101.88 38.8081 100.606C39.5608 99.312 40.5907 98.2969 41.8979 97.5604C43.2052 96.8239 44.6709 96.4557 46.295 96.4557C47.5032 96.4557 48.6223 96.6647 49.6522 97.0827C50.6821 97.5007 51.5635 98.0879 52.2964 98.8442C53.0292 99.5807 53.5541 100.457 53.871 101.472L50.0087 103.144C49.7314 102.328 49.2561 101.681 48.5826 101.203C47.929 100.725 47.1665 100.486 46.295 100.486C45.5225 100.486 44.8293 100.675 44.2153 101.054C43.6211 101.432 43.1458 101.959 42.7892 102.636C42.4525 103.313 42.2842 104.089 42.2842 104.965C42.2842 105.841 42.4525 106.617 42.7892 107.294C43.1458 107.971 43.6211 108.498 44.2153 108.876C44.8293 109.255 45.5225 109.444 46.295 109.444C47.1863 109.444 47.9587 109.205 48.6124 108.727C49.266 108.249 49.7314 107.602 50.0087 106.786L53.871 108.488C53.5739 109.444 53.0589 110.3 52.3261 111.056C51.5932 111.812 50.7118 112.409 49.6819 112.847C48.652 113.265 47.523 113.474 46.295 113.474Z" fill="#212122"/>
<path d="M56.4952 113.116V90.514H60.9517V104.995L59.2879 104.457L66.448 96.8139H71.9443L66.0617 103.383L71.9146 113.116H66.8639L61.9618 104.846L64.5465 104.189L59.585 109.623L60.9517 107.025V113.116H56.4952Z" fill="#212122"/>
<path d="M73.9033 119.088V96.8139H78.0626V99.9191L77.6764 99.0234C78.2112 98.2073 78.9341 97.5803 79.8452 97.1424C80.7761 96.6846 81.8358 96.4557 83.0242 96.4557C84.5691 96.4557 85.9654 96.8338 87.2132 97.5902C88.4611 98.3466 89.4514 99.3717 90.1842 100.666C90.9171 101.939 91.2835 103.373 91.2835 104.965C91.2835 106.537 90.9171 107.971 90.1842 109.264C89.4712 110.558 88.4908 111.583 87.243 112.34C85.9951 113.096 84.579 113.474 82.9945 113.474C81.8853 113.474 80.8553 113.275 79.9046 112.877C78.9737 112.459 78.2211 111.852 77.6467 111.056L78.3597 110.13V119.088H73.9033ZM82.4597 109.444C83.2915 109.444 84.0244 109.255 84.6582 108.876C85.292 108.498 85.7872 107.971 86.1437 107.294C86.5002 106.617 86.6785 105.841 86.6785 104.965C86.6785 104.089 86.5002 103.323 86.1437 102.666C85.7872 101.989 85.292 101.462 84.6582 101.084C84.0244 100.685 83.2915 100.486 82.4597 100.486C81.6674 100.486 80.9544 100.675 80.3206 101.054C79.7066 101.432 79.2213 101.959 78.8648 102.636C78.5281 103.313 78.3597 104.089 78.3597 104.965C78.3597 105.841 78.5281 106.617 78.8648 107.294C79.2213 107.971 79.7066 108.498 80.3206 108.876C80.9544 109.255 81.6674 109.444 82.4597 109.444Z" fill="#212122"/>
<path d="M98.9145 113.474C97.7459 113.474 96.7358 113.285 95.8841 112.907C95.0324 112.529 94.3788 111.991 93.9232 111.295C93.4677 110.578 93.2399 109.732 93.2399 108.757C93.2399 107.841 93.4479 107.035 93.8638 106.338C94.2798 105.622 94.9136 105.025 95.7652 104.547C96.6367 104.069 97.7162 103.731 99.0036 103.532L103.965 102.726V106.01L99.8058 106.756C99.172 106.876 98.6867 107.085 98.35 107.383C98.0133 107.662 97.8449 108.07 97.8449 108.608C97.8449 109.105 98.0331 109.493 98.4094 109.772C98.7857 110.051 99.2512 110.19 99.8058 110.19C100.539 110.19 101.182 110.031 101.737 109.712C102.291 109.394 102.717 108.966 103.014 108.428C103.331 107.871 103.49 107.264 103.49 106.607V102.367C103.49 101.75 103.242 101.233 102.747 100.815C102.272 100.397 101.618 100.188 100.786 100.188C99.9939 100.188 99.2908 100.407 98.6768 100.845C98.0826 101.283 97.6469 101.86 97.3696 102.576L93.8044 100.875C94.1213 99.9589 94.6264 99.1727 95.3196 98.5158C96.0128 97.859 96.8447 97.3514 97.8152 96.9931C98.7857 96.6348 99.8454 96.4557 100.994 96.4557C102.361 96.4557 103.569 96.7045 104.619 97.2021C105.668 97.6997 106.481 98.3964 107.055 99.2921C107.649 100.168 107.946 101.193 107.946 102.367V113.116H103.787V110.489L104.797 110.309C104.322 111.026 103.797 111.623 103.222 112.101C102.648 112.559 102.004 112.897 101.291 113.116C100.578 113.355 99.786 113.474 98.9145 113.474Z" fill="#212122"/>
<path d="M119.177 113.474C117.553 113.474 116.087 113.106 114.78 112.37C113.492 111.613 112.462 110.588 111.69 109.294C110.937 108.001 110.561 106.547 110.561 104.935C110.561 103.323 110.937 101.88 111.69 100.606C112.443 99.312 113.472 98.2969 114.78 97.5604C116.087 96.8239 117.553 96.4557 119.177 96.4557C120.385 96.4557 121.504 96.6647 122.534 97.0827C123.564 97.5007 124.445 98.0879 125.178 98.8442C125.911 99.5807 126.436 100.457 126.753 101.472L122.89 103.144C122.613 102.328 122.138 101.681 121.464 101.203C120.811 100.725 120.048 100.486 119.177 100.486C118.404 100.486 117.711 100.675 117.097 101.054C116.503 101.432 116.028 101.959 115.671 102.636C115.334 103.313 115.166 104.089 115.166 104.965C115.166 105.841 115.334 106.617 115.671 107.294C116.028 107.971 116.503 108.498 117.097 108.876C117.711 109.255 118.404 109.444 119.177 109.444C120.068 109.444 120.841 109.205 121.494 108.727C122.148 108.249 122.613 107.602 122.89 106.786L126.753 108.488C126.456 109.444 125.941 110.3 125.208 111.056C124.475 111.812 123.594 112.409 122.564 112.847C121.534 113.265 120.405 113.474 119.177 113.474Z" fill="#212122"/>
<path d="M129.377 113.116V90.514H133.833V104.995L132.17 104.457L139.33 96.8139H144.826L138.944 103.383L144.796 113.116H139.746L134.844 104.846L137.428 104.189L132.467 109.623L133.833 107.025V113.116H129.377Z" fill="#212122"/>
<defs>
<clipPath id="clip0_1_237">
<rect width="47.6643" height="69.3299" fill="white" transform="translate(48.9939)"/>
</clipPath>
</defs>
</svg>
