<svg width="238" height="49" viewBox="0 0 238 49" fill="none" xmlns="http://www.w3.org/2000/svg">
<path d="M47.4783 40.6931V11.4496H59.7819C61.7869 11.4496 63.5055 11.7897 64.9377 12.4701C66.3698 13.1505 67.4635 14.1318 68.2186 15.4141C68.9738 16.6702 69.3513 18.2011 69.3513 20.0067C69.3513 21.289 68.9998 22.5189 68.2967 23.6965C67.5937 24.8479 66.4349 25.8162 64.8205 26.6012V23.618C66.3568 24.2199 67.5416 24.9395 68.3749 25.7769C69.2081 26.6143 69.781 27.5302 70.0935 28.5247C70.4059 29.4929 70.5622 30.5135 70.5622 31.5864C70.5622 34.465 69.6117 36.7024 67.7109 38.2987C65.81 39.895 63.167 40.6931 59.7819 40.6931H47.4783ZM53.5324 35.3939H60.4849C61.7088 35.3939 62.6853 35.0407 63.4144 34.3341C64.1435 33.6276 64.508 32.7116 64.508 31.5864C64.508 30.435 64.1435 29.506 63.4144 28.7994C62.6853 28.0929 61.7088 27.7396 60.4849 27.7396H53.5324V35.3939ZM53.5324 22.4404H60.2115C61.1489 22.4404 61.8911 22.1787 62.4379 21.6554C63.0108 21.1058 63.2972 20.3862 63.2972 19.4964C63.2972 18.6067 63.0108 17.9001 62.4379 17.3768C61.8911 16.8272 61.1489 16.5525 60.2115 16.5525H53.5324V22.4404Z" fill="#212122"/>
<path d="M80.6171 41.1642C79.0808 41.1642 77.7528 40.9156 76.6331 40.4183C75.5134 39.9211 74.6541 39.2146 74.0552 38.2987C73.4563 37.3566 73.1568 36.2444 73.1568 34.9622C73.1568 33.7584 73.4303 32.6986 73.9771 31.7827C74.5239 30.8406 75.3572 30.0555 76.4769 29.4275C77.6226 28.7994 79.0417 28.3546 80.7343 28.0929L87.2572 27.033V31.3509L81.7889 32.3322C80.9556 32.4892 80.3177 32.764 79.875 33.1565C79.4323 33.5229 79.211 34.0593 79.211 34.7659C79.211 35.4201 79.4584 35.9304 79.9531 36.2968C80.4479 36.6631 81.0598 36.8463 81.7889 36.8463C82.7523 36.8463 83.5986 36.637 84.3277 36.2183C85.0568 35.7996 85.6167 35.2369 86.0073 34.5304C86.4239 33.7977 86.6322 32.9995 86.6322 32.1359V26.562C86.6322 25.7508 86.3067 25.0704 85.6557 24.5208C85.0308 23.9713 84.1715 23.6965 83.0778 23.6965C82.0363 23.6965 81.1119 23.9844 80.3046 24.5601C79.5235 25.1358 78.9506 25.8947 78.5861 26.8368L73.899 24.5993C74.3156 23.3956 74.9796 22.3619 75.891 21.4983C76.8024 20.6348 77.896 19.9675 79.1719 19.4964C80.4479 19.0254 81.841 18.7899 83.3513 18.7899C85.148 18.7899 86.7364 19.117 88.1165 19.7712C89.4965 20.4254 90.5642 21.3413 91.3193 22.5189C92.1005 23.6704 92.4911 25.018 92.4911 26.562V40.6931H87.0228V37.2388L88.3508 37.0033C87.7259 37.9454 87.0358 38.7305 86.2807 39.3585C85.5255 39.9604 84.6793 40.4053 83.7418 40.6931C82.8044 41.0071 81.7629 41.1642 80.6171 41.1642Z" fill="#212122"/>
<path d="M107.256 41.1642C105.12 41.1642 103.194 40.68 101.475 39.7118C99.7824 38.7174 98.4283 37.3697 97.4128 35.6687C96.4233 33.9678 95.9286 32.0574 95.9286 29.9378C95.9286 27.8181 96.4233 25.9209 97.4128 24.2461C98.4023 22.5451 99.7564 21.2105 101.475 20.2422C103.194 19.274 105.12 18.7899 107.256 18.7899C108.844 18.7899 110.315 19.0647 111.669 19.6142C113.023 20.1637 114.182 20.9357 115.146 21.9301C116.109 22.8984 116.799 24.0498 117.216 25.3844L112.138 27.5826C111.774 26.5097 111.149 25.6592 110.263 25.0311C109.404 24.4031 108.401 24.0891 107.256 24.0891C106.24 24.0891 105.329 24.3377 104.522 24.8349C103.74 25.3321 103.115 26.0255 102.647 26.9153C102.204 27.805 101.983 28.8256 101.983 29.977C101.983 31.1284 102.204 32.149 102.647 33.0388C103.115 33.9285 103.74 34.622 104.522 35.1192C105.329 35.6164 106.24 35.865 107.256 35.865C108.427 35.865 109.443 35.551 110.302 34.9229C111.162 34.2949 111.774 33.4444 112.138 32.3715L117.216 34.6089C116.825 35.865 116.148 36.9902 115.185 37.9846C114.221 38.9791 113.062 39.7641 111.708 40.3398C110.354 40.8894 108.87 41.1642 107.256 41.1642Z" fill="#212122"/>
<path d="M120.666 40.6931V10.9785H126.525V30.0163L124.337 29.3097L133.751 19.2609H140.976L133.243 27.8966L140.937 40.6931H134.297L127.853 29.82L131.251 28.9564L124.728 36.1005L126.525 32.6855V40.6931H120.666Z" fill="#212122"/>
<path d="M143.552 48.5437V19.2609H149.02V23.3432L148.512 22.1656C149.215 21.0927 150.166 20.2684 151.364 19.6927C152.588 19.0908 153.981 18.7899 155.543 18.7899C157.574 18.7899 159.41 19.2871 161.05 20.2815C162.691 21.2759 163.993 22.6236 164.956 24.3246C165.92 25.9994 166.401 27.8835 166.401 29.977C166.401 32.0443 165.92 33.9285 164.956 35.6295C164.019 37.3304 162.73 38.6781 161.089 39.6725C159.449 40.6669 157.587 41.1642 155.504 41.1642C154.046 41.1642 152.692 40.9025 151.442 40.3791C150.218 39.8295 149.228 39.0314 148.473 37.9846L149.411 36.7678V48.5437H143.552ZM154.801 35.865C155.895 35.865 156.858 35.6164 157.691 35.1192C158.525 34.622 159.176 33.9285 159.644 33.0388C160.113 32.149 160.347 31.1284 160.347 29.977C160.347 28.8256 160.113 27.8181 159.644 26.9545C159.176 26.0648 158.525 25.3713 157.691 24.8741C156.858 24.3507 155.895 24.0891 154.801 24.0891C153.759 24.0891 152.822 24.3377 151.989 24.8349C151.181 25.3321 150.543 26.0255 150.075 26.9153C149.632 27.805 149.411 28.8256 149.411 29.977C149.411 31.1284 149.632 32.149 150.075 33.0388C150.543 33.9285 151.181 34.622 151.989 35.1192C152.822 35.6164 153.759 35.865 154.801 35.865Z" fill="#212122"/>
<path d="M176.434 41.1642C174.898 41.1642 173.57 40.9156 172.45 40.4183C171.33 39.9211 170.471 39.2146 169.872 38.2987C169.273 37.3566 168.974 36.2444 168.974 34.9622C168.974 33.7584 169.247 32.6986 169.794 31.7827C170.341 30.8406 171.174 30.0555 172.294 29.4275C173.439 28.7994 174.858 28.3546 176.551 28.0929L183.074 27.033V31.3509L177.606 32.3322C176.772 32.4892 176.134 32.764 175.692 33.1565C175.249 33.5229 175.028 34.0593 175.028 34.7659C175.028 35.4201 175.275 35.9304 175.77 36.2968C176.265 36.6631 176.877 36.8463 177.606 36.8463C178.569 36.8463 179.415 36.637 180.144 36.2183C180.874 35.7996 181.433 35.2369 181.824 34.5304C182.241 33.7977 182.449 32.9995 182.449 32.1359V26.562C182.449 25.7508 182.123 25.0704 181.472 24.5208C180.848 23.9713 179.988 23.6965 178.895 23.6965C177.853 23.6965 176.929 23.9844 176.121 24.5601C175.34 25.1358 174.767 25.8947 174.403 26.8368L169.716 24.5993C170.132 23.3956 170.796 22.3619 171.708 21.4983C172.619 20.6348 173.713 19.9675 174.989 19.4964C176.265 19.0254 177.658 18.7899 179.168 18.7899C180.965 18.7899 182.553 19.117 183.933 19.7712C185.313 20.4254 186.381 21.3413 187.136 22.5189C187.917 23.6704 188.308 25.018 188.308 26.562V40.6931H182.84V37.2388L184.168 37.0033C183.543 37.9454 182.853 38.7305 182.097 39.3585C181.342 39.9604 180.496 40.4053 179.559 40.6931C178.621 41.0071 177.58 41.1642 176.434 41.1642Z" fill="#212122"/>
<path d="M203.072 41.1642C200.937 41.1642 199.01 40.68 197.292 39.7118C195.599 38.7174 194.245 37.3697 193.23 35.6687C192.24 33.9678 191.745 32.0574 191.745 29.9378C191.745 27.8181 192.24 25.9209 193.23 24.2461C194.219 22.5451 195.573 21.2105 197.292 20.2422C199.01 19.274 200.937 18.7899 203.072 18.7899C204.661 18.7899 206.132 19.0647 207.486 19.6142C208.84 20.1637 209.999 20.9357 210.962 21.9301C211.926 22.8984 212.616 24.0498 213.032 25.3844L207.955 27.5826C207.59 26.5097 206.965 25.6592 206.08 25.0311C205.221 24.4031 204.218 24.0891 203.072 24.0891C202.057 24.0891 201.145 24.3377 200.338 24.8349C199.557 25.3321 198.932 26.0255 198.463 26.9153C198.021 27.805 197.799 28.8256 197.799 29.977C197.799 31.1284 198.021 32.149 198.463 33.0388C198.932 33.9285 199.557 34.622 200.338 35.1192C201.145 35.6164 202.057 35.865 203.072 35.865C204.244 35.865 205.26 35.551 206.119 34.9229C206.978 34.2949 207.59 33.4444 207.955 32.3715L213.032 34.6089C212.642 35.865 211.965 36.9902 211.001 37.9846C210.038 38.9791 208.879 39.7641 207.525 40.3398C206.171 40.8894 204.687 41.1642 203.072 41.1642Z" fill="#212122"/>
<path d="M216.482 40.6931V10.9785H222.341V30.0163L220.154 29.3097L229.567 19.2609H236.793L229.059 27.8966L236.754 40.6931H230.114L223.669 29.82L227.067 28.9564L220.545 36.1005L222.341 32.6855V40.6931H216.482Z" fill="#212122"/>
<g clip-path="url(#clip0_25_744)">
<path fill-rule="evenodd" clip-rule="evenodd" d="M17.9194 3.98967C19.5123 3.98967 21.0065 4.2032 22.3899 4.59924C21.0355 1.4426 18.2234 0.543701 15.0936 0.543701C11.9578 0.543701 9.14074 1.44613 7.7894 4.61784C9.16266 4.20787 10.6504 3.98967 12.2379 3.98967H17.9194ZM11.8735 7.15881C4.30962 7.15881 0 13.1093 0 20.4495V27.9898C0 28.7238 0.613176 29.3046 1.36957 29.3046H28.7609C29.5173 29.3046 30.1304 28.7238 30.1304 27.9898V20.4495C30.1304 13.1093 25.119 7.15881 17.5551 7.15881H11.8735ZM15.0545 20.5147C17.7019 20.5147 19.848 18.3686 19.848 15.7213C19.848 13.0739 17.7019 10.9278 15.0545 10.9278C12.4072 10.9278 10.261 13.0739 10.261 15.7213C10.261 18.3686 12.4072 20.5147 15.0545 20.5147ZM0 33.7366C0 33.0025 0.613175 32.4075 1.36957 32.4075H28.7609C29.5173 32.4075 30.1304 33.0025 30.1304 33.7366V41.711C30.1304 43.179 28.9041 44.3691 27.3913 44.3691H2.73913C1.22635 44.3691 0 43.179 0 41.711V33.7366Z" fill="#E33E3F"/>
</g>
<defs>
<clipPath id="clip0_25_744">
<rect width="30.1304" height="43.8261" fill="white" transform="translate(0 0.543701)"/>
</clipPath>
</defs>
</svg>
