<svg width="232" height="49" viewBox="0 0 232 49" fill="none" xmlns="http://www.w3.org/2000/svg">
<g clip-path="url(#clip0_2936_1281)">
<path d="M30.941 16.7823H17.0734C16.4842 16.7823 16.0066 17.2599 16.0066 17.849V31.7166C16.0066 32.3057 16.4842 32.7833 17.0734 32.7833H30.941C31.5301 32.7833 32.0077 32.3057 32.0077 31.7166V17.849C32.0077 17.2599 31.5301 16.7823 30.941 16.7823Z" fill="black"/>
<path d="M14.9319 0.778076H1.0643C0.475154 0.778076 -0.00244141 1.25567 -0.00244141 1.84481V15.7124C-0.00244141 16.3015 0.475154 16.7791 1.0643 16.7791H14.9319C15.521 16.7791 15.9986 16.3015 15.9986 15.7124V1.84481C15.9986 1.25567 15.521 0.778076 14.9319 0.778076Z" fill="black"/>
<path d="M46.9356 0.778137H33.068C32.4788 0.778137 32.0012 1.25573 32.0012 1.84487V15.7124C32.0012 16.3016 32.4788 16.7792 33.068 16.7792H46.9356C47.5247 16.7792 48.0023 16.3016 48.0023 15.7124V1.84487C48.0023 1.25573 47.5247 0.778137 46.9356 0.778137Z" fill="black"/>
<path d="M14.9319 32.7771H1.0643C0.475154 32.7771 -0.00244141 33.2547 -0.00244141 33.8438V47.7114C-0.00244141 48.3005 0.475154 48.7781 1.0643 48.7781H14.9319C15.5211 48.7781 15.9987 48.3005 15.9987 47.7114V33.8438C15.9987 33.2547 15.5211 32.7771 14.9319 32.7771Z" fill="black"/>
<path d="M46.9356 32.7771H33.068C32.4788 32.7771 32.0012 33.2547 32.0012 33.8438V47.7114C32.0012 48.3005 32.4788 48.7781 33.068 48.7781H46.9356C47.5247 48.7781 48.0023 48.3005 48.0023 47.7114V33.8438C48.0023 33.2547 47.5247 32.7771 46.9356 32.7771Z" fill="black"/>
<path d="M91.1333 3.11224H96.2315L105.348 37.5996L114.525 3.11224H120.223L108.407 46.1765H102.769L93.5924 12.6487L84.4758 46.1765H78.8378L66.9622 3.11224H72.9L82.0767 37.5996L91.1333 3.11224ZM131.014 46.7163C125.316 46.7163 120.698 43.3575 120.698 37.7196C120.698 31.4818 125.556 28.9028 132.574 27.4633L140.191 25.9039V24.5844C140.191 20.9857 138.212 18.9464 134.013 18.9464C130.055 18.9464 127.716 20.8058 126.756 24.2845L121.658 22.965C123.157 17.8668 127.776 14.2082 134.193 14.2082C141.211 14.2082 145.529 17.6269 145.529 24.3445V39.6388C145.529 41.6781 146.789 42.3379 148.888 41.858V46.1765C144.09 46.7762 141.331 45.6367 140.671 42.6377C138.752 45.0968 135.273 46.7163 131.014 46.7163ZM140.191 35.5004V30.1023L134.073 31.4219C129.275 32.3815 126.036 33.701 126.036 37.4796C126.036 40.5385 128.255 42.3379 131.674 42.3379C136.292 42.3379 140.191 39.5189 140.191 35.5004ZM160.126 3.11224V46.1765H154.728V3.11224H160.126ZM174.535 3.11224V46.1765H169.137V3.11224H174.535ZM196.081 46.8362C187.384 46.8362 181.386 40.1787 181.386 30.5222C181.386 21.1656 187.324 14.2082 195.841 14.2082C204.598 14.2082 209.216 20.8657 209.216 29.5625V31.3619H186.544C186.844 37.9595 190.623 42.1579 196.081 42.1579C200.279 42.1579 203.278 39.8788 204.238 36.1601L208.976 37.8395C207.057 43.4175 202.318 46.8362 196.081 46.8362ZM195.781 18.8265C191.222 18.8265 187.804 21.8854 186.844 27.2234H203.758C203.638 22.785 201.239 18.8265 195.781 18.8265ZM216.775 38.6792V19.4263H211.917V14.808H216.775V5.63132H222.113V14.808H229.251V19.4263H222.113V37.8395C222.113 41.1383 223.733 41.7381 226.492 41.7381C227.751 41.7381 228.651 41.6781 229.911 41.3782V45.9965C228.531 46.2964 226.972 46.4763 225.172 46.4763C219.834 46.4763 216.775 44.677 216.775 38.6792Z" fill="black"/>
</g>
<defs>
<clipPath id="clip0_2936_1281">
<rect width="232" height="49" fill="white"/>
</clipPath>
</defs>
</svg>
